<svg width="65" height="65" viewBox="0 0 65 65" xmlns="http://www.w3.org/2000/svg">
  <path
    d="M48.7503 35.2028H35.2087V48.7445C35.2087 49.4628 34.9233 50.1516 34.4154 50.6595C33.9075 51.1675 33.2186 51.4528 32.5003 51.4528C31.782 51.4528 31.0932 51.1675 30.5852 50.6595C30.0773 50.1516 29.792 49.4628 29.792 48.7445V35.2028H16.2503C15.532 35.2028 14.8432 34.9175 14.3352 34.4095C13.8273 33.9016 13.542 33.2128 13.542 32.4945C13.542 31.7762 13.8273 31.0873 14.3352 30.5794C14.8432 30.0715 15.532 29.7861 16.2503 29.7861H29.792V16.2445C29.792 15.5262 30.0773 14.8373 30.5852 14.3294C31.0932 13.8215 31.782 13.5361 32.5003 13.5361C33.2186 13.5361 33.9075 13.8215 34.4154 14.3294C34.9233 14.8373 35.2087 15.5262 35.2087 16.2445V29.7861H48.7503C49.4686 29.7861 50.1575 30.0715 50.6654 30.5794C51.1733 31.0873 51.4587 31.7762 51.4587 32.4945C51.4587 33.2128 51.1733 33.9016 50.6654 34.4095C50.1575 34.9175 49.4686 35.2028 48.7503 35.2028Z" />
</svg>