<svg width="50" height="50" viewBox="0 0 50 50" xmlns="http://www.w3.org/2000/svg">
  <g clip-path="url(#clip0_633_316)">
    <path
      d="M35.2077 6.25C35.7724 6.24971 36.3173 6.45793 36.7379 6.83472C37.1586 7.21151 37.4252 7.73033 37.4869 8.29167L37.4994 8.54167V14.5833H39.5827C41.1769 14.5832 42.7108 15.1923 43.8707 16.286C45.0306 17.3797 45.7287 18.8752 45.8223 20.4667L45.8327 20.8333V35.4167C45.833 36.4679 45.436 37.4803 44.7212 38.2511C44.0065 39.0219 43.0268 39.4941 41.9785 39.5729L41.666 39.5833H37.4994V43.5417C37.4996 44.1064 37.2914 44.6513 36.9146 45.0719C36.5378 45.4925 36.019 45.7592 35.4577 45.8208L35.2077 45.8333H14.791C14.2263 45.8336 13.6814 45.6254 13.2608 45.2486C12.8401 44.8718 12.5735 44.353 12.5118 43.7917L12.4993 43.5417V39.5833H8.33268C7.28148 39.5837 6.269 39.1867 5.49821 38.4719C4.72741 37.7571 4.25527 36.7774 4.17643 35.7292L4.16602 35.4167V20.8333C4.16593 19.2391 4.77503 17.7052 5.86869 16.5453C6.96235 15.3854 8.45791 14.6873 10.0493 14.5938L10.416 14.5833H12.4993V8.54167C12.4991 7.97696 12.7073 7.43203 13.0841 7.01142C13.4609 6.5908 13.9797 6.3241 14.541 6.2625L14.791 6.25H35.2077ZM33.3327 33.3333H16.666V41.6667H33.3327V33.3333ZM39.5827 18.75H10.416C9.90574 18.7501 9.41323 18.9374 9.03191 19.2765C8.65059 19.6156 8.40697 20.0828 8.34727 20.5896L8.33268 20.8333V35.4167H12.4993V31.4583C12.4991 30.8936 12.7073 30.3487 13.0841 29.9281C13.4609 29.5075 13.9797 29.2408 14.541 29.1792L14.791 29.1667H35.2077C35.7724 29.1664 36.3173 29.3746 36.7379 29.7514C37.1586 30.1282 37.4252 30.647 37.4869 31.2083L37.4994 31.4583V35.4167H41.666V20.8333C41.666 20.2808 41.4465 19.7509 41.0558 19.3602C40.6651 18.9695 40.1352 18.75 39.5827 18.75ZM35.416 20.8333C35.947 20.8339 36.4578 21.0372 36.8439 21.4018C37.23 21.7663 37.4623 22.2645 37.4935 22.7946C37.5246 23.3247 37.3521 23.8466 37.0113 24.2538C36.6705 24.661 36.1871 24.9227 35.6598 24.9854L35.416 25H31.2494C30.7184 24.9994 30.2076 24.7961 29.8215 24.4316C29.4354 24.067 29.203 23.5688 29.1719 23.0388C29.1408 22.5087 29.3133 21.9867 29.6541 21.5795C29.9949 21.1723 30.4783 20.9106 31.0056 20.8479L31.2494 20.8333H35.416ZM33.3327 10.4167H16.666V14.5833H33.3327V10.4167Z" />
  </g>
  <defs>
    <clipPath id="clip0_633_316">
      <rect width="50" height="50" />
    </clipPath>
  </defs>
</svg>