<svg width="50" height="50" viewBox="0 0 50 50" xmlns="http://www.w3.org/2000/svg">
  <path
    d="M15.0154 5.29747C15.406 5.68815 15.6254 6.21796 15.6254 6.77039C15.6254 7.32281 15.406 7.85262 15.0154 8.2433L11.28 11.9787H27.605C30.9014 11.9787 34.1237 12.9562 36.8645 14.7876C39.6053 16.6189 41.7416 19.2219 43.003 22.2673C44.2645 25.3128 44.5945 28.6639 43.9514 31.8969C43.3084 35.1299 41.721 38.0996 39.3901 40.4305C37.0593 42.7614 34.0895 44.3487 30.8565 44.9918C29.7786 45.2062 28.6876 45.3125 27.5992 45.3121H10.5C9.39543 45.3121 8.5 44.4166 8.5 43.3121V43.1454C8.5 42.0408 9.39543 41.1454 10.5 41.1454H27.5992C28.416 41.1458 29.2347 41.0661 30.0437 40.9052C32.4684 40.4229 34.6957 39.2324 36.4439 37.4842C38.192 35.7361 39.3825 33.5088 39.8648 31.084C40.3472 28.6593 40.0996 26.1459 39.1535 23.8618C38.2074 21.5778 36.6053 19.6255 34.5497 18.252C32.494 16.8785 30.0773 16.1454 27.605 16.1454H11.28L15.0154 19.8808C15.3949 20.2737 15.6049 20.8 15.6002 21.3462C15.5954 21.8925 15.3763 22.415 14.9901 22.8013C14.6038 23.1875 14.0813 23.4066 13.535 23.4114C12.9888 23.4161 12.4625 23.2061 12.0696 22.8266L4.77794 15.535C4.38738 15.1443 4.16797 14.6145 4.16797 14.0621C4.16797 13.5096 4.38738 12.9798 4.77794 12.5891L12.0696 5.29747C12.4603 4.90691 12.9901 4.6875 13.5425 4.6875C14.0949 4.6875 14.6248 4.90691 15.0154 5.29747Z" />
</svg>