<svg width="50" height="50" viewBox="0 0 50 50" xmlns="http://www.w3.org/2000/svg">
  <path
    d="M14.5833 39.5833V27.0833H35.4167V39.5833H39.5833V16.3083L33.6917 10.4167H10.4167V39.5833H14.5833ZM8.33333 6.25H35.4167L43.75 14.5833V41.6667C43.75 42.2192 43.5305 42.7491 43.1398 43.1398C42.7491 43.5305 42.2192 43.75 41.6667 43.75H8.33333C7.7808 43.75 7.25089 43.5305 6.86019 43.1398C6.46949 42.7491 6.25 42.2192 6.25 41.6667V8.33333C6.25 7.7808 6.46949 7.25089 6.86019 6.86019C7.25089 6.46949 7.7808 6.25 8.33333 6.25ZM18.75 31.25V39.5833H31.25V31.25H18.75Z" />
</svg>