<svg width="50" height="50" viewBox="0 0 50 50" xmlns="http://www.w3.org/2000/svg">
  <path
    d="M8.33219 43.75H41.4426C43.7405 43.75 45.6093 41.8812 45.6093 39.5833V10.4167C45.6093 8.11875 43.7405 6.25 41.4426 6.25H8.33219C6.03428 6.25 4.16553 8.11875 4.16553 10.4167V39.5833C4.16553 41.8812 6.03428 43.75 8.33219 43.75ZM8.33219 39.5833V29.1667H16.6655V39.5833H8.33219ZM29.1655 14.5833V25H20.8322V14.5833H29.1655ZM16.6655 14.5833V25H8.33219V14.5833H16.6655ZM20.8322 39.5833V29.1667H29.1655V39.5833H20.8322ZM33.3322 39.5833V29.1667H41.4447V39.5833H33.3322ZM41.4426 25H33.3322V14.5833H41.4426V25Z" />
</svg>