<svg width="50" height="50" viewBox="0 0 50 50" fill="none" xmlns="http://www.w3.org/2000/svg">
<path d="M37.5 16.6663H35.4167V12.4997C35.4167 6.74967 30.75 2.08301 25 2.08301C19.25 2.08301 14.5834 6.74967 14.5834 12.4997V16.6663H12.5C10.2084 16.6663 8.33337 18.5413 8.33337 20.833V41.6663C8.33337 43.958 10.2084 45.833 12.5 45.833H37.5C39.7917 45.833 41.6667 43.958 41.6667 41.6663V20.833C41.6667 18.5413 39.7917 16.6663 37.5 16.6663ZM31.4584 16.6663H18.5417V12.4997C18.5417 8.93717 21.4375 6.04134 25 6.04134C28.5625 6.04134 31.4584 8.93717 31.4584 12.4997V16.6663Z" fill="white"/>
</svg>
