<svg width="50" height="50" viewBox="0 0 50 50" xmlns="http://www.w3.org/2000/svg">
  <path
    d="M43.7488 39.5827V41.666H6.24878V39.5827L10.4154 35.416V22.916C10.4154 16.4577 14.6446 10.7702 20.8321 8.93685V8.33268C20.8321 7.22761 21.2711 6.16781 22.0525 5.3864C22.8339 4.605 23.8937 4.16602 24.9988 4.16602C26.1038 4.16602 27.1637 4.605 27.9451 5.3864C28.7265 6.16781 29.1654 7.22761 29.1654 8.33268V8.93685C35.3529 10.7702 39.5821 16.4577 39.5821 22.916V35.416L43.7488 39.5827ZM29.1654 43.7493C29.1654 44.8544 28.7265 45.9142 27.9451 46.6956C27.1637 47.477 26.1038 47.916 24.9988 47.916C23.8937 47.916 22.8339 47.477 22.0525 46.6956C21.2711 45.9142 20.8321 44.8544 20.8321 43.7493" />
</svg>