<svg width="50" height="50" viewBox="0 0 50 50" xmlns="http://www.w3.org/2000/svg">
  <path
    d="M45.7761 41.0156C43.0983 36.3158 38.9169 32.6538 33.905 30.6191C36.3974 28.7499 38.2384 26.1438 39.1673 23.1701C40.0962 20.1963 40.066 17.0057 39.0808 14.0501C38.0956 11.0946 36.2054 8.5239 33.6781 6.70226C31.1507 4.88063 28.1142 3.90039 24.9988 3.90039C21.8833 3.90039 18.8468 4.88063 16.3195 6.70226C13.7921 8.5239 11.9019 11.0946 10.9167 14.0501C9.93155 17.0057 9.90127 20.1963 10.8302 23.1701C11.7591 26.1438 13.6002 28.7499 16.0925 30.6191C11.0806 32.6538 6.89923 36.3158 4.22142 41.0156C4.05549 41.2824 3.9449 41.5799 3.89622 41.8903C3.84754 42.2007 3.86177 42.5177 3.93806 42.8225C4.01435 43.1273 4.15114 43.4136 4.3403 43.6645C4.52946 43.9153 4.76713 44.1256 5.03918 44.2828C5.31123 44.44 5.6121 44.5408 5.92391 44.5794C6.23573 44.618 6.55211 44.5935 6.85426 44.5073C7.15642 44.4212 7.43816 44.2752 7.68275 44.078C7.92735 43.8808 8.12979 43.6364 8.27806 43.3594C11.8171 37.2422 18.0671 33.5938 24.9988 33.5938C31.9304 33.5938 38.1804 37.2441 41.7195 43.3594C42.0408 43.876 42.5504 44.2475 43.1406 44.3952C43.7309 44.543 44.3554 44.4554 44.8822 44.151C45.409 43.8466 45.7968 43.3493 45.9637 42.7642C46.1305 42.1791 46.0632 41.552 45.7761 41.0156ZM14.8425 18.75C14.8425 16.7413 15.4382 14.7777 16.5541 13.1075C17.6701 11.4373 19.2563 10.1356 21.1121 9.36685C22.9679 8.59815 25.01 8.39702 26.9801 8.7889C28.9503 9.18078 30.7599 10.1481 32.1803 11.5684C33.6007 12.9888 34.568 14.7985 34.9599 16.7686C35.3517 18.7387 35.1506 20.7808 34.3819 22.6366C33.6132 24.4924 32.3115 26.0786 30.6413 27.1946C28.9711 28.3106 27.0075 28.9062 24.9988 28.9062C22.3061 28.9031 19.7246 27.8321 17.8206 25.9281C15.9166 24.0241 14.8456 21.4427 14.8425 18.75Z" />
</svg>