<svg width="42" height="42" viewBox="0 0 42 42" xmlns="http://www.w3.org/2000/svg">
  <path
    d="M38.9979 39L30.312 30.3141M30.312 30.3141C31.7978 28.8283 32.9763 27.0645 33.7804 25.1233C34.5845 23.182 34.9984 21.1014 34.9984 19.0002C34.9984 16.899 34.5845 14.8184 33.7804 12.8772C32.9764 10.936 31.7978 9.17212 30.312 7.68636C28.8263 6.2006 27.0624 5.02203 25.1212 4.21794C23.1799 3.41386 21.0993 3 18.9982 3C16.897 3 14.8164 3.41386 12.8751 4.21794C10.9339 5.02203 9.17004 6.2006 7.68428 7.68636C4.68366 10.687 2.99792 14.7567 2.99792 19.0002C2.99792 23.2438 4.68366 27.3135 7.68428 30.3141C10.6849 33.3147 14.7546 35.0005 18.9982 35.0005C23.2417 35.0005 27.3114 33.3147 30.312 30.3141Z" />
</svg>