<svg width="50" height="50" viewBox="0 0 50 50" fill="none" xmlns="http://www.w3.org/2000/svg">
<path d="M29.1667 43.75H20.8334L19.6855 38.5833C18.3193 38.0492 17.0417 37.3117 15.8959 36.3958L10.8459 37.9854L6.6792 30.7687L10.5792 27.1896C10.3609 25.7394 10.3609 24.2647 10.5792 22.8146L6.6792 19.2333L10.8459 12.0167L15.8959 13.6063C17.0422 12.6895 18.3205 11.9513 19.6875 11.4167L20.8334 6.25H29.1667L30.3146 11.4167C31.6807 11.9509 32.9584 12.6884 34.1042 13.6042L39.1542 12.0146L43.3209 19.2312L39.4209 22.8104C39.6393 24.2606 39.6393 25.7353 39.4209 27.1854L43.3209 30.7646L39.1542 37.9813L34.1042 36.3917C32.9587 37.309 31.681 38.0479 30.3146 38.5833L29.1667 43.75Z" stroke="white" stroke-width="4" stroke-linecap="round" stroke-linejoin="round"/>
<path d="M25 31.25C28.4518 31.25 31.25 28.4518 31.25 25C31.25 21.5482 28.4518 18.75 25 18.75C21.5482 18.75 18.75 21.5482 18.75 25C18.75 28.4518 21.5482 31.25 25 31.25Z" stroke="white" stroke-width="4"/>
</svg>
