<svg width="50" height="50" viewBox="0 0 50 50" fill="none" xmlns="http://www.w3.org/2000/svg">
<path d="M40.625 6.25H9.375C8.5462 6.25 7.75134 6.57924 7.16529 7.16529C6.57924 7.75134 6.25 8.5462 6.25 9.375V40.625C6.25 41.4538 6.57924 42.2487 7.16529 42.8347C7.75134 43.4208 8.5462 43.75 9.375 43.75H40.625C41.4538 43.75 42.2487 43.4208 42.8347 42.8347C43.4208 42.2487 43.75 41.4538 43.75 40.625V9.375C43.75 8.5462 43.4208 7.75134 42.8347 7.16529C42.2487 6.57924 41.4538 6.25 40.625 6.25Z" stroke="white" stroke-width="4" stroke-linecap="round" stroke-linejoin="round"/>
<path d="M18.7503 23.9587C20.1317 23.9587 21.4564 23.4099 22.4332 22.4332C23.4099 21.4564 23.9587 20.1317 23.9587 18.7503C23.9587 17.369 23.4099 16.0442 22.4332 15.0675C21.4564 14.0907 20.1317 13.542 18.7503 13.542C17.369 13.542 16.0442 14.0907 15.0675 15.0675C14.0907 16.0442 13.542 17.369 13.542 18.7503C13.542 20.1317 14.0907 21.4564 15.0675 22.4332C16.0442 23.4099 17.369 23.9587 18.7503 23.9587ZM28.9482 27.3128C29.1456 27.0485 29.403 26.8349 29.6991 26.6895C29.9952 26.5441 30.3216 26.4711 30.6514 26.4765C30.9813 26.4819 31.3051 26.5655 31.5963 26.7205C31.8875 26.8755 32.1377 27.0974 32.3264 27.368L41.467 40.4753C42.4295 41.8566 41.4409 43.7503 39.7587 43.7503H16.667L28.9482 27.3128Z" stroke="white" stroke-width="4" stroke-linecap="round" stroke-linejoin="round"/>
</svg>
