<?xml version="1.0" encoding="utf-8"?><svg viewBox="0 0 12 18" xmlns="http://www.w3.org/2000/svg" xmlns:xlink="http://www.w3.org/1999/xlink"><style>:root>svg{display:none}:root>svg:target{display:block}</style><svg viewBox="0 0 10 18" id="arrow-next" xmlns="http://www.w3.org/2000/svg"><path fill-rule="evenodd" clip-rule="evenodd" d="M.837 16.81a.75.75 0 001.061 0l7.264-7.264a.747.747 0 00.219-.489.749.749 0 00-.215-.616L1.902 1.177a.75.75 0 00-1.06 1.06l6.753 6.755L.837 15.75a.75.75 0 000 1.06z"/></svg><svg viewBox="0 0 12 12" id="close" xmlns="http://www.w3.org/2000/svg"><path fill-rule="evenodd" clip-rule="evenodd" d="M.47 10.47a.75.75 0 101.06 1.06L6 7.06l4.47 4.47a.75.75 0 101.06-1.06L7.06 6l4.47-4.47A.75.75 0 0010.47.47L6 4.94 1.53.47A.75.75 0 00.47 1.53L4.94 6 .47 10.47z"/></svg></svg>